<svg width="136" height="136" fill="none" xmlns="http://www.w3.org/2000/svg"><g filter="url(#filter0_d)"><circle cx="67" cy="67" r="48" fill="#fff"/></g><path d="M79.763 71.727a6.31 6.31 0 00-6.303 6.302 6.31 6.31 0 006.303 6.303 6.31 6.31 0 006.302-6.303 6.31 6.31 0 00-6.302-6.302zm0 9.454a3.155 3.155 0 01-3.152-3.152 3.155 3.155 0 013.152-3.15 3.154 3.154 0 013.15 3.15 3.154 3.154 0 01-3.15 3.152zM58.229 71.727a6.31 6.31 0 00-6.303 6.302 6.31 6.31 0 006.303 6.303 6.31 6.31 0 006.302-6.303 6.31 6.31 0 00-6.302-6.302zm0 9.454a3.155 3.155 0 01-3.151-3.152 3.155 3.155 0 013.151-3.15 3.155 3.155 0 013.151 3.15 3.154 3.154 0 01-3.151 3.152zM84.007 53.687a1.577 1.577 0 00-1.408-.868H74.3v3.152h7.327l4.29 8.533 2.817-1.416-4.727-9.401z" fill="#083C6E"/><path d="M75.036 76.506H63.114v3.152h11.922v-3.152zM53.502 76.506H48.04a1.575 1.575 0 100 3.151h5.462a1.575 1.575 0 100-3.15zM91.67 66.874l-3.1-3.992a1.574 1.574 0 00-1.244-.61h-11.45V51.245c0-.87-.705-1.576-1.576-1.576H48.04a1.575 1.575 0 100 3.151h24.685v11.03c0 .87.705 1.575 1.575 1.575h12.254l2.295 2.956v8.126h-4.36a1.575 1.575 0 100 3.151h5.935c.87 0 1.576-.705 1.576-1.575V67.84c0-.35-.117-.69-.33-.966zM53.397 68.523H46.15a1.576 1.576 0 100 3.151h7.248a1.576 1.576 0 100-3.15zM57.021 62.326H43.576a1.576 1.576 0 100 3.151H57.02a1.576 1.576 0 100-3.151z" fill="#083C6E"/><path d="M59.594 56.128H46.15a1.575 1.575 0 100 3.151h13.445a1.575 1.575 0 100-3.15z" fill="#083C6E"/><defs><filter id="filter0_d" x="0" y="0" width="136" height="136" filterUnits="userSpaceOnUse" color-interpolation-filters="sRGB"><feFlood flood-opacity="0" result="BackgroundImageFix"/><feColorMatrix in="SourceAlpha" values="0 0 0 0 0 0 0 0 0 0 0 0 0 0 0 0 0 0 127 0"/><feOffset dx="1" dy="1"/><feGaussianBlur stdDeviation="10"/><feColorMatrix values="0 0 0 0 0 0 0 0 0 0 0 0 0 0 0 0 0 0 0.07 0"/><feBlend in2="BackgroundImageFix" result="effect1_dropShadow"/><feBlend in="SourceGraphic" in2="effect1_dropShadow" result="shape"/></filter></defs></svg>