<svg width="136" height="136" fill="none" xmlns="http://www.w3.org/2000/svg"><g filter="url(#filter0_d)"><circle cx="67" cy="67" r="48" fill="#fff"/></g><path d="M63.67 59.624c.08-.11.176-.213.286-.309.111-.095.229-.186.354-.27.125-.085.252-.164.381-.238.129-.073.249-.143.36-.21.16-.095.321-.2.48-.314.158-.114.3-.247.425-.398a1.93 1.93 0 00.304-.514c.077-.191.116-.408.116-.651 0-.59-.214-1.057-.641-1.403-.427-.346-1.038-.519-1.834-.519a4.796 4.796 0 00-1.756.326c-.25.1-.473.212-.668.337a2.25 2.25 0 00-.47.386l1.116 1.303c.214-.242.435-.44.663-.59.228-.151.497-.227.806-.227.273 0 .484.063.635.188.151.125.227.291.227.497 0 .103-.03.195-.088.276-.06.081-.16.17-.299.265-.14.096-.326.206-.558.332-.232.125-.52.28-.867.463-.324.177-.595.361-.812.553a2.547 2.547 0 00-.524.63 2.458 2.458 0 00-.282.75 4.699 4.699 0 00-.083.928h5.556v-1.59H63.67zM72.02 59.514V54.91h-1.204l-3.612 4.616v1.58h3.049v1.513h1.767v-1.513h.972v-1.59h-.972zm-1.568 0H68.96l1.492-1.955v1.955z" fill="#083C6E"/><path d="M80.574 69.56a5.572 5.572 0 002.249-6.55 5.593 5.593 0 001.95-4.239 5.593 5.593 0 00-1.95-4.24 5.592 5.592 0 00-.43-4.645 5.593 5.593 0 00-3.81-2.697 5.593 5.593 0 00-2.696-3.808 5.595 5.595 0 00-4.647-.43A5.594 5.594 0 0067 41a5.594 5.594 0 00-4.24 1.95 5.594 5.594 0 00-4.647.43 5.594 5.594 0 00-2.696 3.81 5.594 5.594 0 00-3.81 2.696 5.592 5.592 0 00-.43 4.646 5.592 5.592 0 00-1.95 4.239c0 1.653.733 3.194 1.95 4.24a5.571 5.571 0 002.249 6.55L41.472 81.51l10.165 1.326L52.963 93 67 78.965 81.037 93l1.326-10.163 10.165-1.326L80.574 69.56zm1.153-10.789c0 1-.591 1.91-1.505 2.318l-1.63.73c.255-.974.392-1.995.392-3.048s-.136-2.074-.393-3.047l1.63.729a2.543 2.543 0 011.506 2.318zM58.38 69.061l.185-1.786a11.989 11.989 0 005.278 3.056l-1.447 1.048a2.544 2.544 0 01-2.76.144 2.543 2.543 0 01-1.256-2.462zm-1.672-1.672a2.543 2.543 0 01-2.463-1.256c-.5-.866-.443-1.949.144-2.76l1.048-1.447a11.985 11.985 0 003.057 5.278l-1.786.185zm1.353-8.618c0-4.928 4.01-8.936 8.938-8.936 4.928 0 8.938 4.008 8.938 8.936s-4.01 8.936-8.938 8.936c-4.928 0-8.938-4.008-8.938-8.936zm17.372 8.504l.185 1.786a2.544 2.544 0 01-1.256 2.462c-.866.5-1.949.443-2.76-.144l-1.447-1.047a11.991 11.991 0 005.278-3.057zm.072-.071a11.987 11.987 0 003.056-5.278l1.048 1.447c.587.811.644 1.895.144 2.76a2.545 2.545 0 01-2.463 1.256l-1.785-.185zm1.785-17.05a2.544 2.544 0 012.463 1.255c.5.866.443 1.949-.144 2.76l-1.048 1.447a11.986 11.986 0 00-3.056-5.278l1.785-.185zm-5.688-3.991a2.544 2.544 0 012.76-.144 2.543 2.543 0 011.256 2.462l-.185 1.786a11.99 11.99 0 00-5.278-3.056l1.447-1.048zm-6.922-.612A2.544 2.544 0 0167 44.046c1 0 1.91.591 2.319 1.505l.729 1.63A11.967 11.967 0 0067 46.788c-1.053 0-2.074.137-3.048.394l.73-1.63zm-5.044.468c.866-.5 1.949-.443 2.76.144l1.447 1.048a11.989 11.989 0 00-5.278 3.056l-.185-1.786a2.543 2.543 0 011.256-2.462zm-5.39 5.39a2.544 2.544 0 012.462-1.256l1.786.185a11.986 11.986 0 00-3.057 5.278l-1.048-1.447a2.543 2.543 0 01-.144-2.76zm-1.974 7.362c0-1 .591-1.91 1.505-2.318l1.63-.73a11.959 11.959 0 00-.392 3.048c0 1.053.137 2.074.393 3.047l-1.63-.729a2.543 2.543 0 01-1.506-2.318zm2.91 27.7l-.828-6.352-6.353-.829 7.771-7.77a5.584 5.584 0 002.34 2.641 5.595 5.595 0 004.647.43 5.605 5.605 0 002.602 1.703L55.184 86.47zm9.498-14.48l-.729-1.63c.974.256 1.995.393 3.048.393s2.074-.137 3.048-.394l-.73 1.63A2.544 2.544 0 0167 73.497c-1 0-1.91-.591-2.319-1.505zm14.964 8.128l-.829 6.352-10.178-10.177c1.009-.31 1.913-.9 2.602-1.702a5.594 5.594 0 004.647-.43 5.583 5.583 0 002.34-2.641l7.771 7.77-6.353.828z" fill="#083C6E"/><defs><filter id="filter0_d" x="0" y="0" width="136" height="136" filterUnits="userSpaceOnUse" color-interpolation-filters="sRGB"><feFlood flood-opacity="0" result="BackgroundImageFix"/><feColorMatrix in="SourceAlpha" values="0 0 0 0 0 0 0 0 0 0 0 0 0 0 0 0 0 0 127 0"/><feOffset dx="1" dy="1"/><feGaussianBlur stdDeviation="10"/><feColorMatrix values="0 0 0 0 0 0 0 0 0 0 0 0 0 0 0 0 0 0 0.07 0"/><feBlend in2="BackgroundImageFix" result="effect1_dropShadow"/><feBlend in="SourceGraphic" in2="effect1_dropShadow" result="shape"/></filter></defs></svg>